<?xml version="1.0" encoding="UTF-8"?>
<svg xmlns="http://www.w3.org/2000/svg" version="1.1" viewBox="0 0 143.9 136.8">
  <defs>
    <style>
      .cls-1 {
        fill: none;
        stroke: #231f20;
        stroke-miterlimit: 10;
      }
    </style>
  </defs>
  <!-- Generator: Adobe Illustrator 28.6.0, SVG Export Plug-In . SVG Version: 1.2.0 Build 709)  -->
  <g>
    <g id="Layer_1">
      <line class="cls-1" x1="92.3" y1="47.8" x2="92.3" y2="47.7"/>
      <line class="cls-1" x1="123.1" y1="136.2" x2="123" y2="136.2"/>
      <line class="cls-1" x1="133.3" y1="130.3" x2="133.2" y2="130.3"/>
      <line class="cls-1" x1="102.6" y1="18.3" x2="102.5" y2="18.2"/>
      <line class="cls-1" x1="92.4" y1="12.4" x2="92.3" y2="12.3"/>
      <line class="cls-1" x1="82.2" y1="6.5" x2="82.1" y2="6.4"/>
      <line class="cls-1" x1="92.4" y1="47.8" x2="92.3" y2="47.7"/>
      <line class="cls-1" x1="82.2" y1="53.6" x2="82.1" y2="53.6"/>
      <line class="cls-1" x1="61.7" y1="53.6" x2="61.7" y2="53.6"/>
      <polyline class="cls-1" points="143.3 41.9 71.9 83.1 .5 41.8"/>
      <polygon class="cls-1" points="101.3 124.2 101.4 97.6 71.9 114.1 42.2 97.1 42.2 97.5 42.3 123.9 20.7 136.2 20.6 136.2 11.6 131 .5 124.3 .5 112.5 .5 42.3 .5 41.9 20.9 30.1 21.3 30.3 31.1 36 31.1 24.2 72 .6 143.4 41.9 143.4 124.4 143.4 124.5 123 136.2 101.3 124.2"/>
      <polyline class="cls-1" points="31 24.1 51.5 36 72 23 102.5 42 71.9 59.5 31.1 35.9"/>
      <line class="cls-1" x1="31.1" y1="36" x2="31.1" y2="35.9"/>
      <line class="cls-1" x1="71.9" y1="83.1" x2="71.9" y2="114.1"/>
      <polyline class="cls-1" points="42.2 97.1 20.9 84.6 20.9 84.6 20.6 136.1"/>
      <polyline class="cls-1" points="101.4 97.5 122.9 84.6 122.9 84.6 123 136.2"/>
      <line class="cls-1" x1="72" y1="23" x2="72" y2="59.7"/>
      <line class="cls-1" x1="51.5" y1="36" x2="51.5" y2="47.8"/>
      <line class="cls-1" x1="31.1" y1="24.2" x2="51.5" y2="36"/>
    </g>
  </g>
</svg>